<svg width="48" height="49" viewBox="0 0 48 49" fill="none" xmlns="http://www.w3.org/2000/svg">
<g id="printer 1">
<path id="Vector" d="M12 18.5V4.5H36V18.5" stroke="#C46DE3" stroke-width="4" stroke-linecap="round" stroke-linejoin="round"/>
<path id="Vector_2" d="M12 36.5H8C6.93913 36.5 5.92172 36.0786 5.17157 35.3284C4.42143 34.5783 4 33.5609 4 32.5V22.5C4 21.4391 4.42143 20.4217 5.17157 19.6716C5.92172 18.9214 6.93913 18.5 8 18.5H40C41.0609 18.5 42.0783 18.9214 42.8284 19.6716C43.5786 20.4217 44 21.4391 44 22.5V32.5C44 33.5609 43.5786 34.5783 42.8284 35.3284C42.0783 36.0786 41.0609 36.5 40 36.5H36" stroke="#C46DE3" stroke-width="4" stroke-linecap="round" stroke-linejoin="round"/>
<path id="Vector_3" d="M36 28.5H12V44.5H36V28.5Z" stroke="#C46DE3" stroke-width="4" stroke-linecap="round" stroke-linejoin="round"/>
</g>
</svg>
